HIERARCHY
ROOT hips
{
	OFFSET -0.003675 0.299928 -0.021708
	CHANNELS 6 Xposition Yposition Zposition Xrotation Yrotation Zrotation
	JOINT LowerBack
	{
		OFFSET 0.000919 0.177588 0.009275
		CHANNELS 3 Xrotation Yrotation Zrotation
		JOINT spine
		{
			OFFSET 0.000919 0.177588 0.009275
			CHANNELS 3 Xrotation Yrotation Zrotation
			JOINT chest
			{
				OFFSET 0.000456 0.100015 0.004638
				CHANNELS 3 Xrotation Yrotation Zrotation
				JOINT neck
				{
					OFFSET 0.000456 0.100015 0.004638
					CHANNELS 3 Xrotation Yrotation Zrotation
					JOINT head
					{
						OFFSET 0.000924 0.155147 0.009274
						CHANNELS 6 Xposition Yposition Zposition Xrotation Yrotation Zrotation
						End Site
						{
							OFFSET 0.000000 0.153400 0.000000
						}
					}
				}
				JOINT shoulder.L
				{
					OFFSET 0.019937 0.078966 0.057518
					CHANNELS 6 Xposition Yposition Zposition Yrotation Xrotation Zrotation
					JOINT upper_arm.L
					{
						OFFSET 0.177024 -0.020465 -0.095062
						CHANNELS 6 Xposition Yposition Zposition Xrotation Yrotation Zrotation
						JOINT forearm.L
						{
							OFFSET 0.247100 -0.135500 -0.061800
							CHANNELS 3 Xrotation Yrotation Zrotation
							JOINT hand.L
							{
								OFFSET 0.217000 -0.143000 0.039300
								CHANNELS 3 Xrotation Yrotation Zrotation
								JOINT palm.01.L
								{
									OFFSET 0.021770 -0.038291 0.012954
									CHANNELS 6 Xposition Yposition Zposition Yrotation Xrotation Zrotation
									JOINT f_index.01.L
									{
										OFFSET 0.053215 -0.044137 0.008236
										CHANNELS 3 Xrotation Yrotation Zrotation
										JOINT f_index.02.L
										{
											OFFSET 0.036108 -0.024723 -0.010656
											CHANNELS 3 Xrotation Yrotation Zrotation
											JOINT f_index.03.L
											{
												OFFSET 0.021342 -0.014948 -0.010846
												CHANNELS 3 Xrotation Yrotation Zrotation
												End Site
												{
													OFFSET 0.015600 -0.009860 -0.013421
												}
											}
										}
									}
									JOINT thumb.01.L
									{
										OFFSET -0.009090 -0.002348 -0.024223
										CHANNELS 6 Xposition Yposition Zposition Xrotation Yrotation Zrotation
										JOINT thumb.02.L
										{
											OFFSET 0.019713 -0.035076 -0.011120
											CHANNELS 3 Xrotation Yrotation Zrotation
											JOINT thumb.03.L
											{
												OFFSET 0.024877 -0.021748 -0.005176
												CHANNELS 3 Xrotation Yrotation Zrotation
												End Site
												{
													OFFSET 0.016125 -0.013029 -0.001569
												}
											}
										}
									}
								}
								JOINT palm.02.L
								{
									OFFSET 0.032823 -0.025104 0.012281
									CHANNELS 6 Xposition Yposition Zposition Yrotation Xrotation Zrotation
									JOINT f_middle.01.L
									{
										OFFSET 0.055723 -0.038469 0.008037
										CHANNELS 3 Xrotation Yrotation Zrotation
										JOINT f_middle.02.L
										{
											OFFSET 0.038167 -0.027473 -0.015582
											CHANNELS 3 Xrotation Yrotation Zrotation
											JOINT f_middle.03.L
											{
												OFFSET 0.021707 -0.016587 -0.017037
												CHANNELS 3 Xrotation Yrotation Zrotation
												End Site
												{
													OFFSET 0.014112 -0.010584 -0.014294
												}
											}
										}
									}
								}
								JOINT palm.03.L
								{
									OFFSET 0.039230 -0.011402 0.008390
									CHANNELS 6 Xposition Yposition Zposition Yrotation Xrotation Zrotation
									JOINT f_ring.01.L
									{
										OFFSET 0.061796 -0.031470 0.007910
										CHANNELS 3 Xrotation Yrotation Zrotation
										JOINT f_ring.02.L
										{
											OFFSET 0.033092 -0.023401 -0.019127
											CHANNELS 3 Xrotation Yrotation Zrotation
											JOINT f_ring.03.L
											{
												OFFSET 0.021392 -0.015362 -0.017824
												CHANNELS 3 Xrotation Yrotation Zrotation
												End Site
												{
													OFFSET 0.008670 -0.007297 -0.014686
												}
											}
										}
									}
								}
								JOINT palm.04.L
								{
									OFFSET 0.043417 0.002450 0.002889
									CHANNELS 6 Xposition Yposition Zposition Yrotation Xrotation Zrotation
									JOINT f_pinky.01.L
									{
										OFFSET 0.069986 -0.026156 0.003627
										CHANNELS 3 Xrotation Yrotation Zrotation
										JOINT f_pinky.02.L
										{
											OFFSET 0.018520 -0.012813 -0.016429
											CHANNELS 3 Xrotation Yrotation Zrotation
											JOINT f_pinky.03.L
											{
												OFFSET 0.013822 -0.009796 -0.014947
												CHANNELS 3 Xrotation Yrotation Zrotation
												End Site
												{
													OFFSET 0.007238 -0.006103 -0.011657
												}
											}
										}
									}
								}
							}
						}
					}
				}
				JOINT shoulder.R
				{
					OFFSET -0.016662 0.078957 0.057696
					CHANNELS 6 Xposition Yposition Zposition Yrotation Xrotation Zrotation
					JOINT upper_arm.R
					{
						OFFSET -0.176972 -0.020537 -0.095144
						CHANNELS 6 Xposition Yposition Zposition Xrotation Yrotation Zrotation
						JOINT forearm.R
						{
							OFFSET -0.247100 -0.135500 -0.061800
							CHANNELS 3 Xrotation Yrotation Zrotation
							JOINT hand.R
							{
								OFFSET -0.217000 -0.143000 0.039300
								CHANNELS 3 Xrotation Yrotation Zrotation
								JOINT palm.01.R
								{
									OFFSET -0.021773 -0.038278 0.012988
									CHANNELS 6 Xposition Yposition Zposition Yrotation Xrotation Zrotation
									JOINT f_index.01.R
									{
										OFFSET -0.053212 -0.044139 0.008249
										CHANNELS 3 Xrotation Yrotation Zrotation
										JOINT f_index.02.R
										{
											OFFSET -0.036049 -0.024835 -0.010634
											CHANNELS 3 Xrotation Yrotation Zrotation
											JOINT f_index.03.R
											{
												OFFSET -0.021371 -0.014881 -0.010866
												CHANNELS 3 Xrotation Yrotation Zrotation
												End Site
												{
													OFFSET -0.015584 -0.009883 -0.013422
												}
											}
										}
									}
									JOINT thumb.01.R
									{
										OFFSET 0.009113 -0.002381 -0.024211
										CHANNELS 6 Xposition Yposition Zposition Xrotation Yrotation Zrotation
										JOINT thumb.02.R
										{
											OFFSET -0.019694 -0.035097 -0.011088
											CHANNELS 3 Xrotation Yrotation Zrotation
											JOINT thumb.03.R
											{
												OFFSET -0.024867 -0.021762 -0.005168
												CHANNELS 3 Xrotation Yrotation Zrotation
												End Site
												{
													OFFSET -0.016120 -0.013036 -0.001565
												}
											}
										}
									}
								}
								JOINT palm.02.R
								{
									OFFSET -0.032828 -0.025095 0.012286
									CHANNELS 6 Xposition Yposition Zposition Yrotation Xrotation Zrotation
									JOINT f_middle.01.R
									{
										OFFSET -0.055721 -0.038472 0.008040
										CHANNELS 3 Xrotation Yrotation Zrotation
										JOINT f_middle.02.R
										{
											OFFSET -0.038101 -0.027593 -0.015557
											CHANNELS 3 Xrotation Yrotation Zrotation
											JOINT f_middle.03.R
											{
												OFFSET -0.021730 -0.016530 -0.017054
												CHANNELS 3 Xrotation Yrotation Zrotation
												End Site
												{
													OFFSET -0.014096 -0.010608 -0.014293
												}
											}
										}
									}
								}
								JOINT palm.03.R
								{
									OFFSET -0.039192 -0.011488 0.008390
									CHANNELS 6 Xposition Yposition Zposition Yrotation Xrotation Zrotation
									JOINT f_ring.01.R
									{
										OFFSET -0.061839 -0.031387 0.007876
										CHANNELS 3 Xrotation Yrotation Zrotation
										JOINT f_ring.02.R
										{
											OFFSET -0.033068 -0.023437 -0.019125
											CHANNELS 3 Xrotation Yrotation Zrotation
											JOINT f_ring.03.R
											{
												OFFSET -0.021371 -0.015393 -0.017822
												CHANNELS 3 Xrotation Yrotation Zrotation
												End Site
												{
													OFFSET -0.008654 -0.007321 -0.014684
												}
											}
										}
									}
								}
								JOINT palm.04.R
								{
									OFFSET -0.043421 0.002443 0.002845
									CHANNELS 6 Xposition Yposition Zposition Yrotation Xrotation Zrotation
									JOINT f_pinky.01.R
									{
										OFFSET -0.069983 -0.026169 0.003599
										CHANNELS 3 Xrotation Yrotation Zrotation
										JOINT f_pinky.02.R
										{
											OFFSET -0.018501 -0.012842 -0.016428
											CHANNELS 3 Xrotation Yrotation Zrotation
											JOINT f_pinky.03.R
											{
												OFFSET -0.013806 -0.009821 -0.014946
												CHANNELS 3 Xrotation Yrotation Zrotation
												End Site
												{
													OFFSET -0.007226 -0.006121 -0.011655
												}
											}
										}
									}
								}
							}
						}
					}
				}
			}
		}
	}
	JOINT pelvis.L
	{
		OFFSET 0.000000 0.000000 0.000000
		CHANNELS 6 Xposition Yposition Zposition Xrotation Yrotation Zrotation
		JOINT thigh.L
		{
			OFFSET 0.101675 0.001054 -0.000000
			CHANNELS 3 Xrotation Yrotation Zrotation
			JOINT shin.L
			{
				OFFSET 0.000000 -0.534800 0.041000
				CHANNELS 3 Xrotation Yrotation Zrotation
				JOINT foot.L
				{
					OFFSET 0.000000 -0.452000 -0.044800
					CHANNELS 3 Xrotation Yrotation Zrotation
					JOINT toe.L
					{
						OFFSET -0.000000 -0.068500 0.109600
						CHANNELS 3 Xrotation Yrotation Zrotation
						End Site
						{
							OFFSET -0.000000 0.000000 0.067200
						}
					}
				}
				JOINT heel.L
				{
					OFFSET 0.000000 -0.452000 -0.044800
					CHANNELS 3 Xrotation Yrotation Zrotation
					JOINT heel.02.L
					{
						OFFSET -0.038000 -0.085200 0.016200
						CHANNELS 6 Xposition Yposition Zposition Xrotation Yrotation Zrotation
						End Site
						{
							OFFSET 0.080000 -0.000000 0.000000
						}
					}
				}
			}
		}
	}
	JOINT pelvis.R
	{
		OFFSET 0.000000 0.000000 0.000000
		CHANNELS 6 Xposition Yposition Zposition Xrotation Yrotation Zrotation
		JOINT thigh.R
		{
			OFFSET -0.094325 0.001054 0.000000
			CHANNELS 3 Xrotation Yrotation Zrotation
			JOINT shin.R
			{
				OFFSET 0.000000 -0.534800 0.041000
				CHANNELS 3 Xrotation Yrotation Zrotation
				JOINT foot.R
				{
					OFFSET 0.000000 -0.452000 -0.044800
					CHANNELS 3 Xrotation Yrotation Zrotation
					JOINT toe.R
					{
						OFFSET -0.000000 -0.068500 0.109600
						CHANNELS 3 Xrotation Yrotation Zrotation
						End Site
						{
							OFFSET -0.000000 0.000000 0.067200
						}
					}
				}
				JOINT heel.R
				{
					OFFSET 0.000000 -0.452000 -0.044800
					CHANNELS 3 Xrotation Yrotation Zrotation
					JOINT heel.02.R
					{
						OFFSET 0.038000 -0.085200 0.016200
						CHANNELS 6 Xposition Yposition Zposition Xrotation Yrotation Zrotation
						End Site
						{
							OFFSET -0.080000 0.000000 -0.000000
						}
					}
				}
			}
		}
	}
}
MOTION
Frames: 4
Frame Time: 0.041667
-0.012905 0.221801 -0.041148 5.804128 -8.691195 84.307470 0.000001 -0.000000 0.000000 0.000000 0.000001 0.000000 0.000001 -0.000000 -0.000000 0.000001 -0.000000 -0.000000 0.000924 0.155148 0.009274 -5.966480 0.023384 -5.084592 0.019937 0.078966 0.057518 -12.699310 1.599216 34.746327 0.177024 -0.020465 -0.095062 -44.291898 22.248194 -66.755708 8.410564 19.484506 9.576397 -0.000001 -0.000005 -0.000003 0.021770 -0.038291 0.012954 0.000004 0.000001 -0.000001 -0.000001 -0.000002 0.000001 -0.000002 0.000001 0.000005 -0.000000 0.000003 0.000002 -0.009090 -0.002348 -0.024223 0.000000 -0.000000 0.000001 0.000002 -0.000003 -0.000001 0.000000 0.000001 -0.000002 0.032823 -0.025104 0.012281 0.000002 0.000000 0.000002 -0.000006 -0.000004 -0.000004 0.000001 -0.000002 0.000003 0.000000 -0.000003 -0.000001 0.039230 -0.011402 0.008390 0.000005 0.000000 0.000001 0.000000 0.000003 0.000001 0.000003 0.000005 -0.000002 0.000004 -0.000002 0.000003 0.043417 0.002450 0.002889 0.000002 0.000002 -0.000002 0.000002 -0.000000 -0.000005 -0.000001 0.000004 0.000000 0.000001 -0.000003 0.000001 -0.016662 0.078957 0.057696 1.951429 1.730294 -32.166510 -0.176972 -0.020537 -0.095144 -43.791324 -24.792613 72.921914 14.775542 -12.696248 14.942890 -0.000001 0.000006 0.000001 -0.021773 -0.038278 0.012988 0.000001 -0.000001 -0.000005 -0.000002 0.000005 -0.000001 0.000002 -0.000002 0.000001 -0.000000 0.000002 0.000001 0.009114 -0.002381 -0.024211 -0.000000 0.000001 -0.000006 -0.000003 -0.000003 0.000002 -0.000000 0.000002 -0.000001 -0.032828 -0.025095 0.012286 -0.000001 0.000000 -0.000006 -0.000004 0.000000 -0.000001 0.000001 0.000003 -0.000000 -0.000001 0.000000 0.000001 -0.039192 -0.011488 0.008390 -0.000000 0.000002 -0.000004 -0.000001 0.000006 -0.000003 0.000002 -0.000001 0.000000 0.000000 0.000002 -0.000003 -0.043421 0.002443 0.002845 -0.000003 0.000002 -0.000003 0.000001 0.000003 -0.000001 0.000002 -0.000005 -0.000003 -0.000000 0.000001 -0.000000 -0.000000 0.000000 0.000000 -2.027021 -0.151505 0.749861 -74.292193 -0.793382 -6.466266 133.860820 -0.101173 1.023308 -0.000002 -0.000000 0.000000 -0.000002 0.000000 0.000000 0.000002 -0.000002 0.000000 -0.038000 -0.085200 0.016200 -0.000001 -0.000001 0.000001 -0.000000 0.000000 0.000000 -1.988731 -0.150607 1.984152 -76.399388 1.197173 11.028846 128.068069 -1.188751 12.087989 -0.000003 -0.000001 0.000000 0.000003 -0.000000 0.000000 0.000000 -0.000000 -0.000000 0.038000 -0.085200 0.016200 -0.000004 0.000000 -0.000000 
-0.009354 0.219660 -0.042709 -1.232191 -8.249240 82.330492 -0.000001 0.000000 -0.000000 -0.000001 -0.000000 0.000001 -0.000001 0.000000 -0.000001 -0.000000 0.000000 -0.000000 0.000924 0.155147 0.009274 -2.567334 0.002398 15.729004 0.019937 0.078966 0.057518 -11.179202 0.824015 33.009519 0.177024 -0.020465 -0.095062 -47.315002 25.536330 -69.709457 8.510449 23.031077 12.186610 -0.000005 -0.000004 0.000002 0.021770 -0.038291 0.012954 0.000001 -0.000000 -0.000006 -0.000002 -0.000001 0.000003 0.000003 -0.000000 0.000008 -0.000000 0.000005 0.000000 -0.009090 -0.002348 -0.024224 0.000001 -0.000002 -0.000001 -0.000001 -0.000001 0.000003 -0.000001 -0.000001 -0.000002 0.032823 -0.025104 0.012281 -0.000002 0.000001 -0.000001 0.000000 0.000003 -0.000007 -0.000004 -0.000002 -0.000000 0.000003 0.000003 0.000003 0.039230 -0.011402 0.008390 -0.000001 0.000000 0.000001 0.000001 0.000007 -0.000000 -0.000002 0.000006 -0.000002 0.000002 -0.000001 -0.000001 0.043417 0.002450 0.002889 0.000001 0.000004 -0.000005 -0.000003 -0.000003 -0.000002 0.000001 0.000000 -0.000003 -0.000002 -0.000002 -0.000001 -0.016662 0.078956 0.057696 8.694774 1.888976 -35.649069 -0.176972 -0.020537 -0.095144 -37.091247 -21.351298 70.884086 13.158320 -9.654810 17.214483 -0.000001 0.000004 0.000001 -0.021773 -0.038278 0.012988 0.000001 -0.000001 -0.000003 -0.000003 0.000001 -0.000003 -0.000000 -0.000000 -0.000004 0.000000 0.000002 0.000003 0.009114 -0.002381 -0.024211 -0.000001 -0.000003 0.000001 0.000000 -0.000002 0.000000 0.000001 -0.000002 0.000003 -0.032828 -0.025095 0.012286 0.000005 -0.000003 0.000001 0.000003 0.000001 0.000002 -0.000000 0.000000 -0.000000 -0.000001 0.000000 -0.000000 -0.039192 -0.011488 0.008390 0.000002 -0.000000 0.000003 0.000002 0.000002 0.000000 0.000000 -0.000002 0.000002 -0.000005 0.000003 -0.000004 -0.043421 0.002443 0.002844 0.000002 -0.000002 -0.000001 -0.000002 0.000005 -0.000001 -0.000002 -0.000001 -0.000000 -0.000000 0.000004 0.000002 0.000000 0.000000 -0.000000 -2.081304 -0.021737 -0.726823 -78.131975 -1.125983 -10.794346 140.037005 -0.324811 3.281439 -0.000002 -0.000001 0.000001 0.000001 0.000000 0.000001 -0.000002 0.000000 -0.000001 -0.038000 -0.085200 0.016200 0.000004 0.000000 -0.000001 0.000000 0.000000 0.000000 -2.037430 -0.021840 0.507384 -77.958693 0.789030 5.606707 132.382945 -1.454165 14.843377 0.000003 -0.000000 0.000000 0.000008 -0.000000 0.000000 0.000002 -0.000000 0.000000 0.038000 -0.085200 0.016200 -0.000004 0.000000 -0.000000 
-0.005622 0.217766 -0.038257 -12.901537 -6.822159 73.966939 0.000001 0.000001 -0.000000 -0.000000 0.000001 -0.000001 0.000000 0.000001 -0.000002 -0.000000 0.000002 -0.000003 0.000924 0.155148 0.009274 25.929194 -0.073622 31.148948 0.019937 0.078966 0.057518 33.225144 10.624137 39.857152 0.177024 -0.020465 -0.095062 -0.497291 11.505255 -19.958554 -31.067354 46.114579 -126.634412 -0.000000 0.000000 -0.000002 0.021770 -0.038291 0.012954 -0.000002 0.000000 -0.000002 -0.000003 -0.000001 0.000003 0.000002 -0.000000 0.000009 -0.000002 0.000002 0.000002 -0.009090 -0.002348 -0.024224 -0.000002 -0.000001 0.000003 -0.000000 -0.000003 -0.000001 -0.000002 0.000002 -0.000002 0.032823 -0.025104 0.012281 -0.000003 0.000002 0.000005 0.000002 0.000004 0.000000 0.000001 -0.000002 0.000003 -0.000001 -0.000000 0.000000 0.039230 -0.011402 0.008390 -0.000003 -0.000000 0.000006 0.000002 0.000000 -0.000000 0.000006 0.000009 0.000003 0.000000 -0.000004 0.000002 0.043417 0.002450 0.002889 -0.000001 0.000003 -0.000004 0.000001 0.000004 -0.000004 0.000001 0.000002 0.000000 0.000001 -0.000003 -0.000001 -0.016662 0.078957 0.057696 33.112422 5.257898 -42.800947 -0.176972 -0.020537 -0.095144 -44.521311 -22.644819 63.061231 -31.917276 26.017488 16.445796 -0.000001 -0.000000 -0.000002 -0.021773 -0.038278 0.012988 0.000003 -0.000002 -0.000005 0.000001 0.000003 0.000002 0.000001 -0.000002 -0.000001 -0.000002 0.000002 0.000001 0.009113 -0.002381 -0.024211 -0.000001 -0.000001 0.000002 0.000004 -0.000002 0.000000 -0.000002 -0.000003 0.000003 -0.032828 -0.025095 0.012286 0.000002 0.000002 0.000001 0.000001 0.000004 0.000004 -0.000000 -0.000003 -0.000002 -0.000006 0.000003 -0.000004 -0.039192 -0.011488 0.008390 0.000001 0.000002 -0.000004 -0.000002 0.000003 -0.000005 -0.000000 0.000003 0.000000 0.000002 -0.000002 0.000003 -0.043421 0.002443 0.002845 0.000002 0.000000 -0.000001 -0.000004 0.000006 0.000001 -0.000001 0.000001 -0.000002 -0.000001 0.000002 -0.000002 -0.000000 0.000000 -0.000000 -2.032305 0.538159 -7.071884 -77.435726 -2.255578 -26.427802 132.105858 -0.028617 0.291082 0.000003 0.000001 0.000002 -0.000005 -0.000002 0.000000 0.000000 -0.000001 0.000001 -0.038000 -0.085200 0.016200 0.000003 -0.000001 -0.000001 -0.000000 0.000000 0.000000 -1.969871 0.531072 -5.838283 -78.449661 0.361482 0.029666 122.708447 -3.233092 34.748256 0.000000 -0.000001 0.000001 0.000002 0.000000 -0.000001 0.000005 -0.000001 0.000001 0.038000 -0.085200 0.016200 -0.000002 0.000001 -0.000000 
-0.005506 0.217331 -0.036518 -16.453979 -6.085170 73.359018 -0.000000 0.000001 0.000001 -0.000001 0.000000 -0.000001 0.000000 -0.000001 -0.000000 0.000000 -0.000001 0.000003 0.000924 0.155148 0.009274 26.000322 -0.139062 49.999549 0.019937 0.078966 0.057518 35.000464 11.857955 43.525606 0.177024 -0.020465 -0.095062 -5.673936 2.233703 -3.410442 17.793715 45.834534 -194.290974 -0.000000 -0.000000 -0.000000 0.021770 -0.038291 0.012954 -0.000000 0.000002 0.000001 -0.000001 -0.000000 0.000001 -0.000000 -0.000000 0.000005 0.000000 0.000002 0.000004 -0.009090 -0.002348 -0.024224 -0.000002 -0.000004 0.000004 0.000001 -0.000000 0.000005 0.000000 0.000001 0.000001 0.032823 -0.025104 0.012281 -0.000000 0.000001 0.000009 0.000000 0.000003 -0.000005 -0.000003 -0.000003 0.000001 -0.000003 -0.000001 0.000001 0.039230 -0.011402 0.008390 0.000001 0.000001 0.000006 0.000000 0.000002 -0.000000 -0.000000 0.000008 -0.000002 -0.000001 -0.000003 0.000002 0.043417 0.002449 0.002889 -0.000001 0.000002 -0.000000 -0.000003 -0.000006 -0.000000 -0.000001 -0.000002 0.000000 -0.000000 0.000002 -0.000001 -0.016662 0.078956 0.057696 28.340374 7.895719 -53.293709 -0.176972 -0.020537 -0.095144 -52.550417 -21.596090 58.020695 -31.185148 47.637264 -1.702627 0.000001 0.000004 0.000003 -0.021773 -0.038278 0.012988 0.000000 0.000000 0.000002 -0.000001 0.000003 0.000004 -0.000004 -0.000000 -0.000003 -0.000004 0.000000 0.000001 0.009114 -0.002381 -0.024211 0.000002 -0.000003 0.000002 0.000001 0.000001 0.000000 0.000000 -0.000004 0.000001 -0.032828 -0.025095 0.012286 0.000004 0.000001 0.000001 0.000003 0.000007 0.000001 0.000003 0.000004 -0.000004 0.000001 0.000007 -0.000002 -0.039192 -0.011488 0.008390 0.000000 0.000003 -0.000002 -0.000001 0.000003 -0.000003 -0.000001 -0.000002 -0.000000 -0.000004 0.000003 -0.000003 -0.043421 0.002443 0.002844 0.000002 0.000002 0.000002 -0.000003 0.000001 0.000001 0.000002 0.000001 0.000004 -0.000002 0.000000 -0.000002 0.000000 0.000000 0.000000 -1.946452 0.668400 -8.667414 -69.490071 -1.951083 -22.242475 128.069380 -0.726813 7.355983 0.000000 -0.000000 0.000000 -0.000004 0.000000 -0.000003 0.000000 -0.000001 -0.000001 -0.038000 -0.085200 0.016200 -0.000000 -0.000003 -0.000001 0.000000 0.000000 0.000000 -1.881653 0.659212 -7.433980 -67.149550 0.366698 0.345550 115.575639 -2.800536 29.576755 0.000003 0.000001 -0.000001 0.000001 0.000001 -0.000000 0.000007 0.000000 -0.000001 0.038000 -0.085200 0.016200 0.000003 -0.000000 0.000000 
